<?xml version="1.0" standalone="no"?>
<!DOCTYPE svg PUBLIC "-//W3C//DTD SVG 20010904//EN" "http://www.w3.org/TR/2001/REC-SVG-20010904/DTD/svg10.dtd">
<svg xmlns="http://www.w3.org/2000/svg" version="1.0" width="512.000000pt" height="512.000000pt" viewBox="0 0 512.000000 512.000000" preserveAspectRatio="xMidYMid meet">
<metadata>
Created by potrace 1.16, written by Peter Selinger 2001-2019
<meta name="Producer" content="Online-Convert"/></metadata>
<g transform="translate(0.000000,512.000000) scale(0.100000,-0.100000)" fill="#000000" stroke="none">
<path d="M1630 4870 c-214 -142 -257 -175 -267 -202 -7 -19 -12 -88 -12 -158 l-1 -126 -104 -25 -104 -26 -74 62 -73 62 -60 194 c-32 106 -67 201 -77 211 -24 24 -92 24 -116 0 -22 -22 -182 -579 -182 -632 0 -31 12 -47 112 -147 l112 -112 -25 -103 -25 -103 -71 -3 c-68 -3 -78 0 -272 78 -117 46 -216 80 -236 80 -47 0 -75 -29 -75 -78 0 -30 17 -63 95 -180 l95 -142 -75 0 c-123 0 -115 27 -115 -400 0 -421 -5 -400 100 -400 l60 0 0 -1300 c0 -1287 0 -1300 20 -1320 19 -19 33 -20 300 -20 333 0 320 -4 320 109 l0 68 840 286 841 287 836 -285 c460 -157 838 -285 840 -285 1 0 3 -31 3 -70 0 -115 -14 -110 320 -110 267 0 281 1 300 20 20 20 20 33 20 1320 l0 1300 60 0 c105 0 100 -21 100 400 0 347 -1 361 -20 380 -20 20 -33 20 -1055 20 l-1035 0 -71 108 c-39 59 -76 112 -81 117 -5 6 -77 12 -160 15 l-152 5 -26 106 -27 107 62 73 62 74 194 60 c106 33 202 68 211 77 24 24 24 92 0 116 -22 22 -579 182 -632 182 -31 0 -47 -12 -147 -112 l-112 -112 -103 25 -103 25 -3 71 c-3 68 0 78 78 272 46 117 80 216 80 236 0 47 -29 75 -77 75 -32 0 -77 -26 -293 -170z m80 -214 c-29 -73 -30 -84 -30 -220 0 -122 3 -147 18 -165 13 -17 59 -33 192 -66 96 -25 186 -45 200 -45 18 0 53 29 138 114 l113 114 127 -36 127 -36 -78 -24 -78 -23 -99 -120 c-73 -87 -100 -127 -100 -147 0 -15 20 -103 44 -197 34 -129 49 -173 66 -187 19 -16 43 -18 175 -18 l152 0 27 -40 26 -40 -245 0 -245 0 0 38 c0 62 -36 187 -77 265 -78 150 -238 273 -409 317 -338 87 -687 -124 -774 -466 -11 -43 -20 -94 -20 -116 l0 -38 -245 0 -245 0 -44 67 c-25 37 -44 68 -42 70 2 2 38 -10 80 -27 73 -29 84 -30 220 -30 122 0 147 3 165 18 17 13 33 59 66 192 25 96 45 186 45 200 0 18 -29 53 -114 138 l-114 113 36 127 36 127 24 -78 23 -78 120 -99 c73 -62 128 -100 142 -100 12 0 101 20 196 44 136 34 179 49 193 66 16 19 18 43 18 175 l0 152 107 71 c59 39 109 70 110 68 2 -2 -10 -38 -27 -80z m44 -688 c176 -58 291 -204 320 -405 l6 -43 -78 0 -79 0 -6 50 c-11 95 -81 190 -179 242 -36 19 -58 23 -138 23 -80 0 -102 -4 -138 -23 -98 -52 -168 -147 -179 -242 l-6 -50 -78 0 -79 0 6 48 c19 145 94 271 207 345 130 85 274 104 421 55z m-84 -310 c45 -23 73 -59 85 -110 l7 -28 -162 0 -162 0 7 28 c17 71 89 132 155 132 14 0 46 -10 70 -22z m2678 -624 c47 -13 52 -43 52 -313 0 -265 -4 -290 -47 -310 -34 -15 -832 -15 -866 0 -14 6 -30 22 -36 36 -14 31 -15 511 -1 548 5 14 20 30 32 35 25 10 829 13 866 4z m-1066 -472 c3 -157 3 -159 33 -208 19 -30 49 -60 79 -79 l49 -30 399 -3 398 -3 0 -79 0 -80 -1680 0 -1680 0 0 120 0 120 160 0 160 0 0 80 0 80 -160 0 -160 0 0 120 0 120 1199 0 1200 0 3 -158z m-400 -882 l3 -240 -163 -54 -164 -55 -816 278 c-449 153 -827 282 -839 285 -13 4 -23 12 -23 17 0 5 388 9 1000 9 l999 0 3 -240z m1358 160 l0 -80 -600 0 -600 0 0 80 0 80 600 0 600 0 0 -80z m0 -320 l0 -80 -565 0 c-392 0 -571 3 -588 11 -32 14 -47 49 -47 104 l0 45 600 0 600 0 0 -80z m-2939 -261 c228 -78 435 -148 462 -157 26 -9 47 -18 47 -22 0 -3 -204 -75 -452 -160 -249 -84 -459 -155 -465 -158 -10 -3 -13 64 -13 317 0 177 2 321 3 321 2 0 190 -64 418 -141z m2939 -240 c0 -205 -3 -260 -12 -257 -7 3 -217 74 -465 159 -249 85 -453 156 -453 159 0 3 127 49 283 102 l282 97 183 0 182 1 0 -261z"/>
<path d="M3835 2945 c-52 -19 -130 -100 -144 -151 -27 -96 -3 -183 69 -247 105 -94 242 -89 333 13 94 104 89 239 -12 333 -70 65 -157 84 -246 52z m139 -175 c26 -25 25 -76 -2 -102 -45 -45 -125 -13 -125 51 0 70 75 100 127 51z"/>
<path d="M2002 2544 c-55 -28 -77 -69 -77 -144 0 -75 17 -106 78 -140 30 -18 50 -21 91 -18 85 7 137 59 144 144 5 59 -19 114 -66 149 -36 26 -126 31 -170 9z"/>
</g>
</svg>
