<?xml version="1.0" standalone="no"?>
<!DOCTYPE svg PUBLIC "-//W3C//DTD SVG 20010904//EN" "http://www.w3.org/TR/2001/REC-SVG-20010904/DTD/svg10.dtd">
<svg xmlns="http://www.w3.org/2000/svg" version="1.0" width="512.000000pt" height="512.000000pt" viewBox="0 0 512.000000 512.000000" preserveAspectRatio="xMidYMid meet">
<metadata>
Created by potrace 1.16, written by Peter Selinger 2001-2019
<meta name="Producer" content="Online-Convert"/></metadata>
<g transform="translate(0.000000,512.000000) scale(0.100000,-0.100000)" fill="#000000" stroke="none">
<path d="M1539 5031 c-109 -24 -239 -77 -337 -137 -98 -60 -236 -198 -290 -289 -104 -175 -136 -391 -86 -581 24 -94 71 -128 139 -100 52 22 54 39 25 206 -45 254 110 514 389 653 134 68 246 91 413 85 115 -4 146 -9 228 -36 114 -38 201 -93 274 -173 178 -198 205 -465 66 -651 -78 -103 -213 -190 -350 -224 -185 -47 -370 36 -451 201 -96 196 -2 369 209 383 92 6 159 -16 169 -56 5 -22 -1 -33 -44 -72 -32 -29 -74 -56 -113 -70 -49 -18 -65 -30 -77 -56 -18 -37 -12 -75 17 -104 67 -67 306 55 374 192 102 204 -112 399 -378 345 -228 -47 -364 -185 -374 -382 -14 -263 168 -498 434 -561 147 -34 349 4 509 98 103 60 231 193 277 288 95 193 91 411 -12 615 -103 205 -287 351 -525 416 -115 31 -365 36 -486 10z"/>
<path d="M4415 4397 c-92 -35 -168 -94 -300 -228 -394 -404 -422 -427 -568 -481 -123 -44 -175 -107 -165 -201 3 -28 -2 -34 -32 -49 -71 -35 -151 -48 -290 -48 -150 0 -225 -14 -322 -58 -55 -25 -1838 -1162 -1879 -1198 -11 -10 -46 -14 -125 -14 -185 0 -281 36 -389 144 -82 83 -118 145 -145 252 -57 224 6 470 160 624 223 223 573 191 694 -64 113 -239 33 -474 -180 -532 -104 -28 -195 -2 -242 69 -22 34 -27 52 -27 106 0 54 5 74 28 114 19 32 34 47 45 45 25 -5 62 -85 62 -136 0 -74 31 -111 93 -112 60 0 87 34 87 108 0 97 -45 216 -102 270 -33 31 -91 52 -140 52 -170 -1 -297 -230 -244 -440 37 -145 139 -235 295 -261 177 -29 372 54 470 202 108 162 115 389 17 594 -64 135 -170 232 -311 285 -82 30 -233 38 -335 16 -97 -20 -239 -92 -312 -156 -70 -63 -157 -190 -197 -290 -116 -291 -65 -640 125 -849 l36 -41 -41 0 c-62 0 -119 -27 -152 -73 l-29 -40 0 -910 c0 -899 0 -910 21 -946 11 -20 36 -48 56 -61 l37 -25 2445 0 2446 0 35 22 c20 12 46 40 58 61 l22 40 0 911 0 912 -22 30 c-13 17 -39 40 -58 52 l-35 22 -1045 5 -1045 5 180 115 c99 63 206 137 237 163 76 63 146 164 197 286 41 97 108 194 161 233 25 18 26 18 65 -2 80 -41 148 -20 245 74 112 110 221 165 495 252 161 51 332 119 403 160 154 90 228 228 220 408 -5 109 -16 136 -124 307 -97 153 -161 219 -251 262 -60 28 -80 32 -168 34 -85 3 -109 0 -160 -20z m-909 -1137 l26 -39 -31 -27 c-50 -42 -120 -147 -157 -236 -48 -115 -91 -182 -154 -242 -33 -29 -360 -246 -780 -516 -398 -256 -728 -468 -735 -472 -7 -4 -70 86 -173 245 -124 194 -158 255 -149 263 10 10 1322 853 1418 912 77 47 117 55 309 62 161 7 195 11 265 34 44 14 91 33 105 41 14 8 26 14 27 15 2 0 15 -18 29 -40z m-2107 -1449 c111 -173 198 -318 194 -322 -12 -12 -196 -129 -202 -129 -7 0 -405 617 -409 634 -3 13 200 146 209 137 4 -3 97 -147 208 -320z"/>
</g>
</svg>
