<?xml version="1.0" standalone="no"?>
<!DOCTYPE svg PUBLIC "-//W3C//DTD SVG 20010904//EN" "http://www.w3.org/TR/2001/REC-SVG-20010904/DTD/svg10.dtd">
<svg xmlns="http://www.w3.org/2000/svg" version="1.0" width="512.000000pt" height="512.000000pt" viewBox="0 0 512.000000 512.000000" preserveAspectRatio="xMidYMid meet">
<metadata>
Created by potrace 1.16, written by Peter Selinger 2001-2019
<meta name="Producer" content="Online-Convert"/></metadata>
<g transform="translate(0.000000,512.000000) scale(0.100000,-0.100000)" fill="#000000" stroke="none">
<path d="M2497 4700 c-235 -49 -447 -218 -553 -438 -42 -89 -74 -216 -74 -299 0 -56 -6 -75 -57 -178 l-58 -115 -665 0 -666 0 -32 -33 -32 -33 0 -440 0 -440 28 -27 28 -27 667 0 667 0 60 -119 c60 -121 86 -151 127 -151 l23 0 0 -290 0 -290 -123 0 -123 0 -32 -33 -32 -33 0 -225 0 -225 33 -32 33 -32 122 0 122 0 0 -65 c0 -62 -2 -67 -35 -96 -19 -17 -35 -37 -35 -45 0 -12 -42 -14 -243 -14 l-244 0 -24 26 c-118 126 -321 98 -401 -55 -77 -147 11 -326 175 -356 58 -11 119 3 182 40 l57 35 249 0 c206 0 249 -2 249 -14 0 -8 16 -28 35 -45 l35 -30 0 -114 0 -113 33 -32 33 -32 124 0 c121 0 125 1 152 27 28 26 28 28 28 150 0 89 3 123 12 123 16 0 68 51 68 67 0 10 50 13 250 13 l250 0 40 -29 c145 -105 349 -32 390 139 16 68 6 126 -33 190 -82 136 -270 155 -385 40 l-30 -30 -241 0 c-192 0 -241 3 -241 13 0 16 -52 67 -68 67 -8 0 -12 22 -12 69 l0 69 543 5 c590 5 605 6 745 65 99 42 177 96 262 182 80 82 127 153 166 248 56 140 57 150 62 555 l3 377 318 0 317 0 27 28 27 28 0 440 0 440 -33 32 -33 32 -312 0 -312 0 0 149 c0 312 -62 485 -239 662 -129 128 -267 200 -441 228 -38 6 -226 11 -455 10 -340 0 -401 -3 -478 -19z m1008 -129 c112 -37 193 -87 281 -175 88 -88 138 -168 176 -281 l23 -70 3 -1025 c3 -1164 6 -1115 -75 -1280 -97 -199 -292 -338 -517 -369 -50 -7 -354 -11 -852 -11 l-774 0 0 170 0 170 803 0 c888 0 859 -2 948 64 52 38 103 110 122 170 9 32 12 278 12 1056 l0 1015 -28 61 c-31 67 -90 131 -151 163 -73 38 -128 42 -523 39 l-378 -3 -67 -33 c-103 -51 -172 -145 -185 -253 l-6 -49 -165 0 -165 0 6 69 c12 146 79 282 197 402 61 61 94 85 170 123 150 74 164 75 650 73 414 -3 427 -3 495 -26z m-121 -432 c21 -6 58 -29 82 -51 61 -56 74 -105 74 -280 l0 -138 -498 0 -498 0 -53 108 c-51 103 -53 112 -49 170 6 82 42 137 117 175 l55 27 365 0 c229 0 380 -4 405 -11z m-1004 -399 l40 -80 -265 0 c-146 0 -265 2 -265 4 0 2 16 38 35 80 l34 76 191 0 190 0 40 -80z m1160 -335 l0 -145 -355 0 -355 0 0 -55 0 -55 355 0 355 0 0 -185 0 -185 -1530 0 -1530 0 0 80 0 80 335 0 335 0 0 55 0 55 -335 0 -335 0 0 250 0 250 1530 0 1530 0 0 -145z m1140 -240 l0 -385 -285 0 -285 0 0 185 0 185 160 0 160 0 0 55 0 55 -160 0 -160 0 0 145 0 145 285 0 285 0 0 -385z m-2270 -500 c0 -2 -17 -38 -37 -80 l-37 -75 -188 0 -188 0 -40 80 -40 80 265 0 c146 0 265 -2 265 -5z m1128 -342 l-3 -348 -25 -45 c-14 -24 -45 -58 -68 -75 l-44 -30 -534 -3 -534 -3 0 291 0 290 28 0 c47 0 71 28 129 151 l56 119 499 0 499 0 -3 -347z m-2294 -1327 c18 -7 41 -25 52 -38 36 -46 48 -48 328 -48 l266 0 0 -45 0 -45 -276 0 c-282 0 -295 -2 -338 -41 -23 -22 -76 -34 -111 -25 -14 4 -39 19 -56 34 -63 57 -44 173 34 207 41 18 60 18 101 1z m1915 -4 c40 -21 71 -73 71 -117 0 -64 -63 -125 -130 -125 -35 0 -62 12 -103 46 -28 24 -29 24 -313 24 l-284 0 0 45 0 45 276 0 277 0 33 35 c62 66 112 80 173 47z m-869 -127 l0 -125 -140 0 -140 0 0 125 0 125 140 0 140 0 0 -125z"/>
<path d="M630 3420 l0 -60 210 0 210 0 0 60 0 60 -210 0 -210 0 0 -60z"/>
<path d="M1840 3420 l0 -60 510 0 510 0 0 60 0 60 -510 0 -510 0 0 -60z"/>
<path d="M1220 3324 c-55 -24 -99 -73 -115 -128 -8 -27 -15 -51 -15 -53 0 -2 27 -3 60 -3 46 0 60 3 60 14 0 8 11 28 24 43 l24 28 194 3 c169 2 197 1 228 -15 66 -34 63 -127 -6 -153 -14 -6 -88 -10 -165 -10 l-139 0 0 -56 0 -55 173 3 c161 3 174 4 205 26 60 43 86 88 90 157 6 94 -36 164 -120 200 -53 22 -446 21 -498 -1z"/>
<path d="M2090 3205 l0 -55 230 0 230 0 0 55 0 55 -230 0 -230 0 0 -55z"/>
<path d="M2312 2903 l3 -58 515 0 515 0 3 58 3 57 -521 0 -521 0 3 -57z"/>
<path d="M4210 2900 l0 -60 170 0 170 0 0 60 0 60 -170 0 -170 0 0 -60z"/>
</g>
</svg>
