<?xml version="1.0" standalone="no"?>
<!DOCTYPE svg PUBLIC "-//W3C//DTD SVG 20010904//EN" "http://www.w3.org/TR/2001/REC-SVG-20010904/DTD/svg10.dtd">
<svg xmlns="http://www.w3.org/2000/svg" version="1.0" width="512.000000pt" height="512.000000pt" viewBox="0 0 512.000000 512.000000" preserveAspectRatio="xMidYMid meet">
<metadata>
Created by potrace 1.16, written by Peter Selinger 2001-2019
<meta name="Producer" content="Online-Convert"/></metadata>
<g transform="translate(0.000000,512.000000) scale(0.100000,-0.100000)" fill="#000000" stroke="none">
<path d="M1912 4638 c-9 -9 -12 -125 -12 -460 l0 -448 -202 2 -203 3 -100 370 c-55 204 -104 376 -108 383 -5 7 -21 12 -38 12 -44 0 -601 -151 -621 -168 -24 -20 -23 -40 7 -150 14 -51 25 -98 25 -103 0 -5 -11 -9 -25 -9 -66 0 -144 -66 -164 -137 -7 -25 -11 -347 -11 -960 l0 -922 -26 -28 c-56 -59 -68 -105 -72 -270 -4 -180 9 -241 64 -303 l36 -39 -36 -47 c-63 -83 -68 -114 -64 -466 3 -300 4 -315 25 -354 36 -67 70 -101 131 -131 l57 -28 1800 0 1800 0 48 24 c26 13 65 43 86 68 68 76 71 97 71 443 0 344 -5 377 -64 447 -34 39 -35 41 -17 57 10 9 31 40 47 69 l29 52 0 185 c0 201 -4 220 -70 298 l-25 30 0 229 0 228 226 225 c270 269 290 301 263 412 -35 147 -220 207 -333 107 l-34 -29 -61 37 -60 38 -3 320 c-3 315 -3 321 -26 358 -64 102 -222 118 -304 31 -39 -42 -49 -77 -55 -186 l-6 -98 -54 0 -55 0 7 38 c27 159 -145 291 -290 223 -23 -11 -92 -72 -160 -140 l-120 -121 -307 0 -308 0 0 444 c0 391 -2 446 -16 460 -13 14 -58 16 -338 16 -237 0 -325 -3 -334 -12z m471 -147 l-48 -60 -87 0 -86 -1 -39 48 c-22 26 -43 53 -47 60 -6 9 32 12 174 12 l182 0 -49 -59z m-334 -84 l41 -54 0 -666 0 -667 -45 0 -45 0 0 720 c0 396 2 720 4 720 2 0 22 -24 45 -53z m441 -672 l0 -715 -40 0 -40 0 0 671 0 672 36 43 c19 24 37 44 40 44 2 0 4 -322 4 -715z m-1261 581 l18 -66 -41 -11 c-134 -35 -157 -51 -138 -94 17 -37 36 -40 120 -17 41 12 79 19 82 17 12 -8 32 -97 23 -105 -4 -4 -28 -12 -53 -19 -25 -7 -51 -18 -57 -23 -19 -16 -16 -53 7 -73 18 -16 24 -17 79 -3 l60 16 15 -52 c8 -28 12 -54 8 -58 -4 -3 -36 -14 -72 -23 -87 -23 -100 -31 -100 -63 0 -56 30 -63 139 -33 l69 19 11 -43 c17 -69 16 -72 -40 -85 -33 -8 -55 -20 -66 -36 -14 -22 -14 -26 2 -50 18 -28 30 -28 121 -9 30 7 30 6 42 -46 7 -28 11 -53 10 -55 -2 -1 -37 -12 -78 -23 -41 -12 -81 -29 -87 -38 -20 -26 -15 -51 11 -68 23 -15 30 -15 101 5 43 12 81 18 85 13 4 -4 12 -28 18 -53 12 -50 9 -55 -47 -65 -68 -13 -95 -69 -48 -100 21 -13 29 -13 76 1 29 8 54 14 56 12 1 -2 9 -26 18 -55 l15 -52 -52 -15 c-28 -8 -64 -18 -79 -22 -16 -3 -35 -17 -44 -30 -14 -22 -14 -26 1 -49 20 -30 35 -31 127 -6 l70 20 9 -23 c5 -13 12 -39 15 -58 l6 -34 -58 -14 c-48 -13 -59 -20 -67 -43 -8 -23 -6 -31 12 -49 21 -22 23 -22 82 -6 l59 16 16 -55 c9 -30 15 -56 13 -58 -2 -1 -39 -12 -82 -23 -81 -22 -96 -32 -96 -68 0 -47 33 -54 136 -28 36 9 67 14 70 11 3 -3 11 -28 19 -55 l13 -51 -55 -12 c-71 -16 -94 -45 -68 -85 18 -28 31 -28 120 -9 29 6 31 5 43 -39 6 -26 12 -50 12 -55 0 -23 -74 -31 -286 -31 l-223 0 -12 43 c-6 23 -26 98 -44 166 -19 69 -32 128 -30 132 3 4 29 12 57 19 70 16 98 35 98 65 0 24 -23 55 -41 55 -5 0 -41 -9 -79 -19 -39 -11 -70 -17 -70 -15 0 3 -25 98 -55 211 -31 113 -54 207 -53 209 2 1 32 10 68 19 78 20 90 29 90 66 0 46 -33 56 -114 34 -37 -10 -69 -16 -72 -12 -8 7 -114 410 -110 415 2 2 30 10 62 19 81 21 94 29 94 61 0 54 -32 63 -127 36 -30 -9 -56 -14 -58 -12 -8 8 -114 411 -110 418 2 4 30 12 62 19 32 7 66 20 76 29 23 20 22 55 -2 76 -21 19 -17 19 -152 -20 -12 -3 -20 10 -34 61 -9 36 -16 68 -13 70 5 5 472 132 476 130 1 -1 11 -32 21 -69z m1071 -641 l0 -655 -55 0 -55 0 0 655 0 655 55 0 55 0 0 -655z m1331 215 c24 -13 49 -61 49 -95 0 -16 -15 -42 -39 -68 -55 -60 -66 -84 -49 -108 19 -27 794 -509 819 -509 12 0 44 20 70 45 35 33 56 45 78 45 82 0 134 -75 100 -143 -6 -12 -126 -138 -267 -279 -240 -241 -259 -258 -292 -258 -19 1 -180 18 -358 39 l-323 37 -297 297 -297 297 355 355 c342 342 357 355 393 355 21 0 47 -5 58 -10z m-1731 -380 l0 -110 -158 0 -159 0 -26 99 c-15 55 -27 104 -27 110 0 8 61 11 185 11 l185 0 0 -110z m1095 0 l-110 -110 -142 0 -143 0 0 110 0 110 252 0 253 0 -110 -110z m-1966 -798 c85 -317 156 -583 159 -589 3 -10 -34 -13 -167 -13 l-171 0 0 590 c0 465 3 590 13 590 8 0 67 -205 166 -578z m871 404 l0 -175 75 -68 c45 -40 79 -79 83 -96 4 -15 3 -70 -2 -122 l-9 -93 -93 -93 c-64 -63 -95 -88 -98 -78 -11 31 -236 879 -236 889 0 6 50 10 140 10 l140 0 0 -174z m870 171 c0 -1 -38 -40 -85 -87 l-85 -85 0 88 0 87 85 0 c47 0 85 -1 85 -3z m295 -486 l310 -308 165 -17 c214 -22 233 -25 222 -40 -5 -6 -15 -29 -22 -51 -23 -72 -22 -72 -92 -65 -91 10 -102 3 -128 -76 l-23 -67 -72 6 c-81 6 -98 -1 -114 -45 l-11 -28 -404 0 -405 0 -5 88 c-2 48 -14 157 -25 242 -11 85 -23 198 -27 250 l-7 96 159 162 c87 89 161 162 164 162 2 0 144 -139 315 -309z m-699 79 c-49 -59 -51 -88 -27 -327 12 -120 21 -221 21 -225 0 -5 -52 -8 -115 -8 l-116 0 5 33 c16 97 38 366 34 416 -3 43 -12 71 -31 100 l-27 41 141 0 141 0 -26 -30z m-345 -560 c-6 -28 -11 -87 -11 -131 l0 -80 -42 3 -41 3 -20 69 -19 69 69 69 c37 37 69 64 71 58 2 -5 -1 -33 -7 -60z m1869 -90 l0 -120 -150 0 c-82 0 -150 1 -150 3 0 2 7 25 16 52 l17 48 70 -6 c38 -3 78 -2 88 3 9 6 27 39 39 75 19 56 25 65 46 65 l24 0 0 -120z m-1626 -247 c-5 -10 -8 -37 -8 -60 -1 -50 36 -95 100 -124 120 -54 439 -74 1064 -65 555 8 804 19 825 36 19 16 19 64 0 80 -12 10 -95 10 -407 0 -488 -16 -1144 -9 -1301 14 -105 15 -166 37 -175 64 -2 7 20 23 55 40 l58 27 841 3 841 2 33 -22 c72 -49 75 -61 75 -248 0 -185 -3 -195 -69 -244 l-27 -21 -1797 0 -1797 0 -34 24 c-57 41 -71 86 -71 241 0 121 2 141 23 180 12 25 37 55 56 67 l34 23 845 0 c800 0 844 -1 836 -17z"/>
<path d="M3267 3302 c-86 -87 -157 -166 -157 -174 0 -9 6 -23 14 -31 33 -32 747 -467 768 -467 34 0 328 297 328 332 0 14 -6 30 -12 36 -46 38 -747 462 -763 462 -13 0 -77 -57 -178 -158z m446 -123 l177 -110 0 -154 c0 -85 -3 -156 -7 -158 -5 -2 -141 79 -303 180 -162 101 -302 188 -310 193 -12 7 0 24 60 84 l74 76 66 0 65 0 178 -111z"/>
<path d="M812 1811 c-107 -5 -126 -9 -138 -25 -18 -26 -18 -51 2 -71 14 -14 43 -15 253 -9 367 10 698 -13 1006 -71 348 -65 618 -91 1090 -105 277 -8 323 -7 342 6 25 16 32 65 11 81 -7 6 -170 15 -363 22 -480 16 -713 38 -1055 100 -375 69 -732 91 -1148 72z"/>
</g>
</svg>
